<svg version="1.2" baseProfile="tiny-ps" xmlns="http://www.w3.org/2000/svg" viewBox="0 0 1897 9" width="1897" height="9">
	<title>Header</title>
	<style>
		tspan { white-space:pre }
		.shp0 { opacity: 0.102;fill: #000000 } 
	</style>
	<g id="Header">
		<path id="Path" class="shp0" d="M950 0L948 0L948 8L945 8L945 2L944 2L944 8L940 8L940 2L939 2L939 8L935 8L935 2L934 2L934 8L930 8L930 2L929 2L929 8L926 8L926 0L924 0L924 8L920 8L920 2L919 2L919 8L915 8L915 2L914 2L914 8L910 8L910 2L909 2L909 8L905 8L905 2L904 2L904 8L901 8L901 0L899 0L899 8L895 8L895 2L894 2L894 8L890 8L890 2L889 2L889 8L885 8L885 2L884 2L884 8L880 8L880 2L879 2L879 8L876 8L876 0L874 0L874 8L870 8L870 2L869 2L869 8L865 8L865 2L864 2L864 8L860 8L860 2L859 2L859 8L855 8L855 2L854 2L854 8L851 8L851 0L849 0L849 8L845 8L845 2L844 2L844 8L840 8L840 2L839 2L839 8L835 8L835 2L834 2L834 8L830 8L830 2L829 2L829 8L826 8L826 0L824 0L824 8L820 8L820 2L819 2L819 8L815 8L815 2L814 2L814 8L810 8L810 2L809 2L809 8L805 8L805 2L804 2L804 8L801 8L801 0L799 0L799 8L795 8L795 2L794 2L794 8L790 8L790 2L789 2L789 8L785 8L785 2L784 2L784 8L780 8L780 2L779 2L779 8L776 8L776 0L774 0L774 8L770 8L770 2L769 2L769 8L765 8L765 2L764 2L764 8L760 8L760 2L759 2L759 8L755 8L755 2L754 2L754 8L751 8L751 0L749 0L749 8L745 8L745 2L744 2L744 8L740 8L740 2L739 2L739 8L735 8L735 2L734 2L734 8L730 8L730 2L729 2L729 8L726 8L726 0L724 0L724 8L720 8L720 2L719 2L719 8L715 8L715 2L714 2L714 8L710 8L710 2L709 2L709 8L705 8L705 2L704 2L704 8L701 8L701 0L699 0L699 8L695 8L695 2L694 2L694 8L690 8L690 2L689 2L689 8L685 8L685 2L684 2L684 8L680 8L680 2L679 2L679 8L676 8L676 0L674 0L674 8L670 8L670 2L669 2L669 8L665 8L665 2L664 2L664 8L660 8L660 2L659 2L659 8L655 8L655 2L654 2L654 8L651 8L651 0L649 0L649 8L645 8L645 2L644 2L644 8L640 8L640 2L639 2L639 8L635 8L635 2L634 2L634 8L630 8L630 2L629 2L629 8L626 8L626 0L624 0L624 8L620 8L620 2L619 2L619 8L615 8L615 2L614 2L614 8L610 8L610 2L609 2L609 8L605 8L605 2L604 2L604 8L601 8L601 0L599 0L599 8L595 8L595 2L594 2L594 8L590 8L590 2L589 2L589 8L585 8L585 2L584 2L584 8L580 8L580 2L579 2L579 8L576 8L576 0L574 0L574 8L570 8L570 2L569 2L569 8L565 8L565 2L564 2L564 8L560 8L560 2L559 2L559 8L555 8L555 2L554 2L554 8L551 8L551 0L549 0L549 8L545 8L545 2L544 2L544 8L540 8L540 2L539 2L539 8L535 8L535 2L534 2L534 8L530 8L530 2L529 2L529 8L526 8L526 0L524 0L524 8L520 8L520 2L519 2L519 8L515 8L515 2L514 2L514 8L510 8L510 2L509 2L509 8L505 8L505 2L504 2L504 8L501 8L501 0L499 0L499 8L495 8L495 2L494 2L494 8L490 8L490 2L489 2L489 8L485 8L485 2L484 2L484 8L480 8L480 3L479 3L479 8L476 8L476 0L474 0L474 8L471 8L471 2L470 2L470 8L466 8L466 2L465 2L465 8L461 8L461 2L460 2L460 8L456 8L456 2L455 2L455 8L452 8L452 0L450 0L450 8L446 8L446 2L445 2L445 8L441 8L441 2L440 2L440 8L436 8L436 2L435 2L435 8L431 8L431 2L430 2L430 8L427 8L427 0L425 0L425 8L421 8L421 2L420 2L420 8L416 8L416 2L415 2L415 8L411 8L411 2L410 2L410 8L406 8L406 2L405 2L405 8L402 8L402 0L400 0L400 8L396 8L396 2L395 2L395 8L391 8L391 2L390 2L390 8L386 8L386 2L385 2L385 8L381 8L381 2L380 2L380 8L377 8L377 0L375 0L375 8L371 8L371 2L370 2L370 8L366 8L366 2L365 2L365 8L361 8L361 2L360 2L360 8L356 8L356 2L355 2L355 8L352 8L352 0L350 0L350 8L346 8L346 2L345 2L345 8L341 8L341 2L340 2L340 8L336 8L336 2L335 2L335 8L331 8L331 2L330 2L330 8L327 8L327 0L325 0L325 8L321 8L321 2L320 2L320 8L316 8L316 2L315 2L315 8L311 8L311 2L310 2L310 8L306 8L306 2L305 2L305 8L302 8L302 0L300 0L300 8L296 8L296 2L295 2L295 8L291 8L291 2L290 2L290 8L286 8L286 2L285 2L285 8L281 8L281 2L280 2L280 8L277 8L277 0L275 0L275 8L271 8L271 2L270 2L270 8L266 8L266 2L265 2L265 8L261 8L261 2L260 2L260 8L256 8L256 2L255 2L255 8L252 8L252 0L250 0L250 8L246 8L246 2L245 2L245 8L241 8L241 2L240 2L240 8L236 8L236 2L235 2L235 8L231 8L231 2L230 2L230 8L227 8L227 0L225 0L225 8L221 8L221 2L220 2L220 8L216 8L216 2L215 2L215 8L211 8L211 2L210 2L210 8L206 8L206 2L205 2L205 8L202 8L202 0L200 0L200 8L196 8L196 2L195 2L195 8L191 8L191 2L190 2L190 8L186 8L186 2L185 2L185 8L181 8L181 2L180 2L180 8L177 8L177 0L175 0L175 8L171 8L171 2L170 2L170 8L166 8L166 2L165 2L165 8L161 8L161 2L160 2L160 8L156 8L156 2L155 2L155 8L152 8L152 0L150 0L150 8L146 8L146 2L145 2L145 8L141 8L141 2L140 2L140 8L136 8L136 2L135 2L135 8L131 8L131 2L130 2L130 8L127 8L127 0L125 0L125 8L121 8L121 2L120 2L120 8L116 8L116 2L115 2L115 8L111 8L111 2L110 2L110 8L106 8L106 2L105 2L105 8L102 8L102 0L100 0L100 8L96 8L96 2L95 2L95 8L91 8L91 2L90 2L90 8L86 8L86 2L85 2L85 8L81 8L81 2L80 2L80 8L77 8L77 0L75 0L75 8L71 8L71 2L70 2L70 8L66 8L66 2L65 2L65 8L61 8L61 2L60 2L60 8L56 8L56 2L55 2L55 8L52 8L52 0L50 0L50 8L46 8L46 2L45 2L45 8L41 8L41 2L40 2L40 8L36 8L36 2L35 2L35 8L31 8L31 2L30 2L30 8L27 8L27 0L25 0L25 8L21 8L21 2L20 2L20 8L16 8L16 2L15 2L15 8L11 8L11 2L10 2L10 8L6 8L6 3L5 3L5 8L2 8L2 0L0 0L0 9L1897 9L1897 8L1893 8L1893 2L1892 2L1892 8L1888 8L1888 2L1887 2L1887 8L1883 8L1883 2L1882 2L1882 8L1878 8L1878 2L1877 2L1877 8L1874 8L1874 0L1872 0L1872 8L1868 8L1868 2L1867 2L1867 8L1863 8L1863 2L1862 2L1862 8L1858 8L1858 2L1857 2L1857 8L1853 8L1853 2L1852 2L1852 8L1849 8L1849 0L1847 0L1847 8L1843 8L1843 2L1842 2L1842 8L1838 8L1838 2L1837 2L1837 8L1833 8L1833 2L1832 2L1832 8L1828 8L1828 2L1827 2L1827 8L1824 8L1824 0L1822 0L1822 8L1818 8L1818 2L1817 2L1817 8L1813 8L1813 2L1812 2L1812 8L1808 8L1808 2L1807 2L1807 8L1803 8L1803 2L1802 2L1802 8L1799 8L1799 0L1797 0L1797 8L1793 8L1793 2L1792 2L1792 8L1788 8L1788 2L1787 2L1787 8L1783 8L1783 2L1782 2L1782 8L1778 8L1778 2L1777 2L1777 8L1774 8L1774 0L1772 0L1772 8L1768 8L1768 2L1767 2L1767 8L1763 8L1763 2L1762 2L1762 8L1758 8L1758 2L1757 2L1757 8L1753 8L1753 2L1752 2L1752 8L1749 8L1749 0L1747 0L1747 8L1743 8L1743 2L1742 2L1742 8L1738 8L1738 2L1737 2L1737 8L1733 8L1733 2L1732 2L1732 8L1728 8L1728 2L1727 2L1727 8L1724 8L1724 0L1722 0L1722 8L1718 8L1718 2L1717 2L1717 8L1713 8L1713 2L1712 2L1712 8L1708 8L1708 2L1707 2L1707 8L1703 8L1703 2L1702 2L1702 8L1699 8L1699 0L1697 0L1697 8L1693 8L1693 2L1692 2L1692 8L1688 8L1688 2L1687 2L1687 8L1683 8L1683 2L1682 2L1682 8L1678 8L1678 2L1677 2L1677 8L1674 8L1674 0L1672 0L1672 8L1668 8L1668 2L1667 2L1667 8L1663 8L1663 2L1662 2L1662 8L1658 8L1658 2L1657 2L1657 8L1653 8L1653 2L1652 2L1652 8L1649 8L1649 0L1647 0L1647 8L1643 8L1643 2L1642 2L1642 8L1638 8L1638 2L1637 2L1637 8L1633 8L1633 2L1632 2L1632 8L1628 8L1628 2L1627 2L1627 8L1624 8L1624 0L1622 0L1622 8L1618 8L1618 2L1617 2L1617 8L1613 8L1613 2L1612 2L1612 8L1608 8L1608 2L1607 2L1607 8L1603 8L1603 2L1602 2L1602 8L1599 8L1599 0L1597 0L1597 8L1593 8L1593 2L1592 2L1592 8L1588 8L1588 2L1587 2L1587 8L1583 8L1583 2L1582 2L1582 8L1578 8L1578 2L1577 2L1577 8L1574 8L1574 0L1572 0L1572 8L1568 8L1568 2L1567 2L1567 8L1563 8L1563 2L1562 2L1562 8L1558 8L1558 2L1557 2L1557 8L1553 8L1553 2L1552 2L1552 8L1549 8L1549 0L1547 0L1547 8L1543 8L1543 2L1542 2L1542 8L1538 8L1538 2L1537 2L1537 8L1533 8L1533 2L1532 2L1532 8L1528 8L1528 2L1527 2L1527 8L1524 8L1524 0L1522 0L1522 8L1518 8L1518 2L1517 2L1517 8L1513 8L1513 2L1512 2L1512 8L1508 8L1508 2L1507 2L1507 8L1503 8L1503 2L1502 2L1502 8L1499 8L1499 0L1497 0L1497 8L1493 8L1493 2L1492 2L1492 8L1488 8L1488 2L1487 2L1487 8L1483 8L1483 2L1482 2L1482 8L1478 8L1478 2L1477 2L1477 8L1474 8L1474 0L1472 0L1472 8L1468 8L1468 2L1467 2L1467 8L1463 8L1463 2L1462 2L1462 8L1458 8L1458 2L1457 2L1457 8L1453 8L1453 2L1452 2L1452 8L1449 8L1449 0L1447 0L1447 8L1443 8L1443 2L1442 2L1442 8L1438 8L1438 2L1437 2L1437 8L1433 8L1433 2L1432 2L1432 8L1428 8L1428 3L1427 3L1427 8L1424 8L1424 0L1422 0L1422 8L1419 8L1419 2L1418 2L1418 8L1414 8L1414 2L1413 2L1413 8L1409 8L1409 2L1408 2L1408 8L1404 8L1404 2L1403 2L1403 8L1400 8L1400 0L1398 0L1398 8L1394 8L1394 2L1393 2L1393 8L1389 8L1389 2L1388 2L1388 8L1384 8L1384 2L1383 2L1383 8L1379 8L1379 2L1378 2L1378 8L1375 8L1375 0L1373 0L1373 8L1369 8L1369 2L1368 2L1368 8L1364 8L1364 2L1363 2L1363 8L1359 8L1359 2L1358 2L1358 8L1354 8L1354 2L1353 2L1353 8L1350 8L1350 0L1348 0L1348 8L1344 8L1344 2L1343 2L1343 8L1339 8L1339 2L1338 2L1338 8L1334 8L1334 2L1333 2L1333 8L1329 8L1329 2L1328 2L1328 8L1325 8L1325 0L1323 0L1323 8L1319 8L1319 2L1318 2L1318 8L1314 8L1314 2L1313 2L1313 8L1309 8L1309 2L1308 2L1308 8L1304 8L1304 2L1303 2L1303 8L1300 8L1300 0L1298 0L1298 8L1294 8L1294 2L1293 2L1293 8L1289 8L1289 2L1288 2L1288 8L1284 8L1284 2L1283 2L1283 8L1279 8L1279 2L1278 2L1278 8L1275 8L1275 0L1273 0L1273 8L1269 8L1269 2L1268 2L1268 8L1264 8L1264 2L1263 2L1263 8L1259 8L1259 2L1258 2L1258 8L1254 8L1254 2L1253 2L1253 8L1250 8L1250 0L1248 0L1248 8L1244 8L1244 2L1243 2L1243 8L1239 8L1239 2L1238 2L1238 8L1234 8L1234 2L1233 2L1233 8L1229 8L1229 2L1228 2L1228 8L1225 8L1225 0L1223 0L1223 8L1219 8L1219 2L1218 2L1218 8L1214 8L1214 2L1213 2L1213 8L1209 8L1209 2L1208 2L1208 8L1204 8L1204 2L1203 2L1203 8L1200 8L1200 0L1198 0L1198 8L1194 8L1194 2L1193 2L1193 8L1189 8L1189 2L1188 2L1188 8L1184 8L1184 2L1183 2L1183 8L1179 8L1179 2L1178 2L1178 8L1175 8L1175 0L1173 0L1173 8L1169 8L1169 2L1168 2L1168 8L1164 8L1164 2L1163 2L1163 8L1159 8L1159 2L1158 2L1158 8L1154 8L1154 2L1153 2L1153 8L1150 8L1150 0L1148 0L1148 8L1144 8L1144 2L1143 2L1143 8L1139 8L1139 2L1138 2L1138 8L1134 8L1134 2L1133 2L1133 8L1129 8L1129 2L1128 2L1128 8L1125 8L1125 0L1123 0L1123 8L1119 8L1119 2L1118 2L1118 8L1114 8L1114 2L1113 2L1113 8L1109 8L1109 2L1108 2L1108 8L1104 8L1104 2L1103 2L1103 8L1100 8L1100 0L1098 0L1098 8L1094 8L1094 2L1093 2L1093 8L1089 8L1089 2L1088 2L1088 8L1084 8L1084 2L1083 2L1083 8L1079 8L1079 2L1078 2L1078 8L1075 8L1075 0L1073 0L1073 8L1069 8L1069 2L1068 2L1068 8L1064 8L1064 2L1063 2L1063 8L1059 8L1059 2L1058 2L1058 8L1054 8L1054 2L1053 2L1053 8L1050 8L1050 0L1048 0L1048 8L1044 8L1044 2L1043 2L1043 8L1039 8L1039 2L1038 2L1038 8L1034 8L1034 2L1033 2L1033 8L1029 8L1029 2L1028 2L1028 8L1025 8L1025 0L1023 0L1023 8L1019 8L1019 2L1018 2L1018 8L1014 8L1014 2L1013 2L1013 8L1009 8L1009 2L1008 2L1008 8L1004 8L1004 2L1003 2L1003 8L1000 8L1000 0L998 0L998 8L994 8L994 2L993 2L993 8L989 8L989 2L988 2L988 8L984 8L984 2L983 2L983 8L979 8L979 2L978 2L978 8L975 8L975 0L973 0L973 8L969 8L969 2L968 2L968 8L964 8L964 2L963 2L963 8L959 8L959 2L958 2L958 8L954 8L954 3L953 3L953 8L950 8L950 0Z" />
	</g>
</svg>