<svg version="1.2" baseProfile="tiny-ps" xmlns="http://www.w3.org/2000/svg" viewBox="0 0 2850 19" width="2850" height="19">
	<title>Section About</title>
	<style>
		tspan { white-space:pre }
		.shp0 { fill: #f3f3f3 } 
	</style>
	<g id="Section About">
		<path id="Path" class="shp0" d="M950 2L950 19L954 19L954 2L961 2L961 14L963 14L963 2L971 2L971 14L973 14L973 2L981 2L981 14L983 14L983 2L991 2L991 14L993 14L993 2L1000 2L1000 19L1004 19L1004 2L1011 2L1011 14L1013 14L1013 2L1021 2L1021 14L1023 14L1023 2L1031 2L1031 14L1033 14L1033 2L1041 2L1041 14L1043 14L1043 2L1050 2L1050 19L1054 19L1054 2L1061 2L1061 14L1063 14L1063 2L1071 2L1071 14L1073 14L1073 2L1081 2L1081 14L1083 14L1083 2L1091 2L1091 14L1093 14L1093 2L1100 2L1100 19L1104 19L1104 2L1111 2L1111 14L1113 14L1113 2L1121 2L1121 14L1123 14L1123 2L1131 2L1131 14L1133 14L1133 2L1141 2L1141 14L1143 14L1143 2L1150 2L1150 19L1154 19L1154 2L1161 2L1161 14L1163 14L1163 2L1171 2L1171 14L1173 14L1173 2L1181 2L1181 14L1183 14L1183 2L1191 2L1191 14L1193 14L1193 2L1200 2L1200 19L1204 19L1204 2L1211 2L1211 14L1213 14L1213 2L1221 2L1221 14L1223 14L1223 2L1231 2L1231 14L1233 14L1233 2L1241 2L1241 14L1243 14L1243 2L1250 2L1250 19L1254 19L1254 2L1261 2L1261 14L1263 14L1263 2L1271 2L1271 14L1273 14L1273 2L1281 2L1281 14L1283 14L1283 2L1291 2L1291 14L1293 14L1293 2L1300 2L1300 19L1304 19L1304 2L1311 2L1311 14L1313 14L1313 2L1321 2L1321 14L1323 14L1323 2L1331 2L1331 14L1333 14L1333 2L1341 2L1341 14L1343 14L1343 2L1350 2L1350 19L1354 19L1354 2L1361 2L1361 14L1363 14L1363 2L1371 2L1371 14L1373 14L1373 2L1381 2L1381 14L1383 14L1383 2L1391 2L1391 14L1393 14L1393 2L1400 2L1400 19L1404 19L1404 2L1411 2L1411 14L1413 14L1413 2L1421 2L1421 14L1423 14L1423 2L1431 2L1431 14L1433 14L1433 2L1441 2L1441 14L1443 14L1443 2L1450 2L1450 19L1454 19L1454 2L1461 2L1461 14L1463 14L1463 2L1471 2L1471 14L1473 14L1473 2L1481 2L1481 14L1483 14L1483 2L1491 2L1491 14L1493 14L1493 2L1500 2L1500 19L1504 19L1504 2L1511 2L1511 14L1513 14L1513 2L1521 2L1521 14L1523 14L1523 2L1531 2L1531 14L1533 14L1533 2L1541 2L1541 14L1543 14L1543 2L1550 2L1550 19L1554 19L1554 2L1561 2L1561 14L1563 14L1563 2L1571 2L1571 14L1573 14L1573 2L1581 2L1581 14L1583 14L1583 2L1591 2L1591 14L1593 14L1593 2L1600 2L1600 19L1604 19L1604 2L1611 2L1611 14L1613 14L1613 2L1621 2L1621 14L1623 14L1623 2L1631 2L1631 14L1633 14L1633 2L1641 2L1641 14L1643 14L1643 2L1650 2L1650 19L1654 19L1654 2L1661 2L1661 14L1663 14L1663 2L1671 2L1671 14L1673 14L1673 2L1681 2L1681 14L1683 14L1683 2L1691 2L1691 14L1693 14L1693 2L1700 2L1700 19L1704 19L1704 2L1711 2L1711 14L1713 14L1713 2L1721 2L1721 14L1723 14L1723 2L1731 2L1731 14L1733 14L1733 2L1741 2L1741 14L1743 14L1743 2L1750 2L1750 19L1754 19L1754 2L1761 2L1761 14L1763 14L1763 2L1771 2L1771 14L1773 14L1773 2L1781 2L1781 14L1783 14L1783 2L1791 2L1791 14L1793 14L1793 2L1800 2L1800 19L1804 19L1804 2L1811 2L1811 14L1813 14L1813 2L1821 2L1821 14L1823 14L1823 2L1831 2L1831 14L1833 14L1833 2L1841 2L1841 14L1843 14L1843 2L1850 2L1850 19L1854 19L1854 2L1861 2L1861 14L1863 14L1863 2L1871 2L1871 14L1873 14L1873 2L1881 2L1881 14L1883 14L1883 2L1891 2L1891 14L1893 14L1893 2L1900 2L1900 19L1904 19L1904 2L1911 2L1911 14L1913 14L1913 2L1921 2L1921 14L1923 14L1923 2L1931 2L1931 14L1933 14L1933 2L1941 2L1941 14L1943 14L1943 2L1950 2L1950 19L1954 19L1954 2L1961 2L1961 14L1963 14L1963 2L1971 2L1971 14L1973 14L1973 2L1981 2L1981 14L1983 14L1983 2L1991 2L1991 14L1993 14L1993 2L2000 2L2000 19L2004 19L2004 2L2011 2L2011 14L2013 14L2013 2L2021 2L2021 14L2023 14L2023 2L2031 2L2031 14L2033 14L2033 2L2041 2L2041 14L2043 14L2043 2L2050 2L2050 19L2054 19L2054 2L2061 2L2061 14L2063 14L2063 2L2071 2L2071 14L2073 14L2073 2L2081 2L2081 14L2083 14L2083 2L2091 2L2091 14L2093 14L2093 2L2100 2L2100 19L2104 19L2104 2L2111 2L2111 14L2113 14L2113 2L2121 2L2121 14L2123 14L2123 2L2131 2L2131 14L2133 14L2133 2L2141 2L2141 14L2143 14L2143 2L2150 2L2150 19L2154 19L2154 2L2161 2L2161 14L2163 14L2163 2L2171 2L2171 14L2173 14L2173 2L2181 2L2181 14L2183 14L2183 2L2191 2L2191 14L2193 14L2193 2L2200 2L2200 19L2204 19L2204 2L2211 2L2211 14L2213 14L2213 2L2221 2L2221 14L2223 14L2223 2L2231 2L2231 14L2233 14L2233 2L2241 2L2241 14L2243 14L2243 2L2250 2L2250 19L2254 19L2254 2L2261 2L2261 14L2263 14L2263 2L2271 2L2271 14L2273 14L2273 2L2281 2L2281 14L2283 14L2283 2L2291 2L2291 14L2293 14L2293 2L2300 2L2300 19L2304 19L2304 2L2311 2L2311 14L2313 14L2313 2L2321 2L2321 14L2323 14L2323 2L2331 2L2331 14L2333 14L2333 2L2341 2L2341 14L2343 14L2343 2L2350 2L2350 19L2354 19L2354 2L2361 2L2361 14L2363 14L2363 2L2371 2L2371 14L2373 14L2373 2L2381 2L2381 14L2383 14L2383 2L2391 2L2391 14L2393 14L2393 2L2400 2L2400 19L2404 19L2404 2L2411 2L2411 14L2413 14L2413 2L2421 2L2421 14L2423 14L2423 2L2431 2L2431 14L2433 14L2433 2L2441 2L2441 14L2443 14L2443 2L2450 2L2450 19L2454 19L2454 2L2461 2L2461 14L2463 14L2463 2L2471 2L2471 14L2473 14L2473 2L2481 2L2481 14L2483 14L2483 2L2491 2L2491 14L2493 14L2493 2L2500 2L2500 19L2504 19L2504 2L2511 2L2511 14L2513 14L2513 2L2521 2L2521 14L2523 14L2523 2L2531 2L2531 14L2533 14L2533 2L2541 2L2541 14L2543 14L2543 2L2550 2L2550 19L2554 19L2554 2L2561 2L2561 14L2563 14L2563 2L2571 2L2571 14L2573 14L2573 2L2581 2L2581 14L2583 14L2583 2L2591 2L2591 14L2593 14L2593 2L2600 2L2600 19L2604 19L2604 2L2611 2L2611 14L2613 14L2613 2L2621 2L2621 14L2623 14L2623 2L2631 2L2631 14L2633 14L2633 2L2641 2L2641 14L2643 14L2643 2L2650 2L2650 19L2654 19L2654 2L2661 2L2661 14L2663 14L2663 2L2671 2L2671 14L2673 14L2673 2L2681 2L2681 14L2683 14L2683 2L2691 2L2691 14L2693 14L2693 2L2700 2L2700 19L2704 19L2704 2L2711 2L2711 14L2713 14L2713 2L2721 2L2721 14L2723 14L2723 2L2731 2L2731 14L2733 14L2733 2L2741 2L2741 14L2743 14L2743 2L2750 2L2750 19L2754 19L2754 2L2761 2L2761 14L2763 14L2763 2L2771 2L2771 14L2773 14L2773 2L2781 2L2781 14L2783 14L2783 2L2791 2L2791 14L2793 14L2793 2L2800 2L2800 19L2804 19L2804 2L2811 2L2811 14L2813 14L2813 2L2821 2L2821 14L2823 14L2823 2L2831 2L2831 14L2833 14L2833 2L2841 2L2841 14L2843 14L2843 2L2850 2L2850 0L0 0L0 19L4 19L4 2L11 2L11 14L13 14L13 2L21 2L21 14L23 14L23 2L31 2L31 14L33 14L33 2L41 2L41 14L43 14L43 2L50 2L50 19L54 19L54 2L61 2L61 14L63 14L63 2L71 2L71 14L73 14L73 2L81 2L81 14L83 14L83 2L91 2L91 14L93 14L93 2L100 2L100 19L104 19L104 2L111 2L111 14L113 14L113 2L121 2L121 14L123 14L123 2L131 2L131 14L133 14L133 2L141 2L141 14L143 14L143 2L150 2L150 19L154 19L154 2L161 2L161 14L163 14L163 2L171 2L171 14L173 14L173 2L181 2L181 14L183 14L183 2L191 2L191 14L193 14L193 2L200 2L200 19L204 19L204 2L211 2L211 14L213 14L213 2L221 2L221 14L223 14L223 2L231 2L231 14L233 14L233 2L241 2L241 14L243 14L243 2L250 2L250 19L254 19L254 2L261 2L261 14L263 14L263 2L271 2L271 14L273 14L273 2L281 2L281 14L283 14L283 2L291 2L291 14L293 14L293 2L300 2L300 19L304 19L304 2L311 2L311 14L313 14L313 2L321 2L321 14L323 14L323 2L331 2L331 14L333 14L333 2L341 2L341 14L343 14L343 2L350 2L350 19L354 19L354 2L361 2L361 14L363 14L363 2L371 2L371 14L373 14L373 2L381 2L381 14L383 14L383 2L391 2L391 14L393 14L393 2L400 2L400 19L404 19L404 2L411 2L411 14L413 14L413 2L421 2L421 14L423 14L423 2L431 2L431 14L433 14L433 2L441 2L441 14L443 14L443 2L450 2L450 19L454 19L454 2L461 2L461 14L463 14L463 2L471 2L471 14L473 14L473 2L481 2L481 14L483 14L483 2L491 2L491 14L493 14L493 2L500 2L500 19L504 19L504 2L511 2L511 14L513 14L513 2L521 2L521 14L523 14L523 2L531 2L531 14L533 14L533 2L541 2L541 14L543 14L543 2L550 2L550 19L554 19L554 2L561 2L561 14L563 14L563 2L571 2L571 14L573 14L573 2L581 2L581 14L583 14L583 2L591 2L591 14L593 14L593 2L600 2L600 19L604 19L604 2L611 2L611 14L613 14L613 2L621 2L621 14L623 14L623 2L631 2L631 14L633 14L633 2L641 2L641 14L643 14L643 2L650 2L650 19L654 19L654 2L661 2L661 14L663 14L663 2L671 2L671 14L673 14L673 2L681 2L681 14L683 14L683 2L691 2L691 14L693 14L693 2L700 2L700 19L704 19L704 2L711 2L711 14L713 14L713 2L721 2L721 14L723 14L723 2L731 2L731 14L733 14L733 2L741 2L741 14L743 14L743 2L750 2L750 19L754 19L754 2L761 2L761 14L763 14L763 2L771 2L771 14L773 14L773 2L781 2L781 14L783 14L783 2L791 2L791 14L793 14L793 2L800 2L800 19L804 19L804 2L811 2L811 14L813 14L813 2L821 2L821 14L823 14L823 2L831 2L831 14L833 14L833 2L841 2L841 14L843 14L843 2L850 2L850 19L854 19L854 2L861 2L861 14L863 14L863 2L871 2L871 14L873 14L873 2L881 2L881 14L883 14L883 2L891 2L891 14L893 14L893 2L900 2L900 19L904 19L904 2L911 2L911 14L913 14L913 2L921 2L921 14L923 14L923 2L931 2L931 14L933 14L933 2L941 2L941 14L943 14L943 2L950 2Z" />
	</g>
</svg>